<svg width="20" height="20" viewBox="0 0 20 20" xmlns="http://www.w3.org/2000/svg"><title>Icon/search-no-circle</title><g fill="#8e9494" fill-rule="evenodd"><path d="M11.22 11.817a5.296 5.296 0 0 1-3.524 1.34c-2.987 0-5.376-2.474-5.376-5.461A5.354 5.354 0 0 1 7.696 2.32a5.354 5.354 0 0 1 5.376 5.376c0 1.33-.474 2.56-1.265 3.514l5.788 5.787c.17.171.17.427 0 .598-.086.085-.256.085-.342.085-.085 0-.17 0-.256-.085l-5.777-5.778zM7.696 3.088a4.589 4.589 0 0 0-4.608 4.608 4.589 4.589 0 0 0 4.608 4.608 4.589 4.589 0 0 0 4.608-4.608 4.589 4.589 0 0 0-4.608-4.608z"></path></g></svg>